<svg xmlns="http://www.w3.org/2000/svg" viewBox="0 0 512 512" role="img" aria-label="Learning Journey">
  <defs>
    <linearGradient id="bg" x1="0%" y1="0%" x2="100%" y2="100%">
      <stop offset="0%" stop-color="#1c1917"/>
      <stop offset="100%" stop-color="#0c0a09"/>
    </linearGradient>
    <linearGradient id="f1" x1="50%" y1="100%" x2="50%" y2="0%">
      <stop offset="0%" stop-color="#c2410c"/>
      <stop offset="50%" stop-color="#f97316"/>
      <stop offset="100%" stop-color="#fde68a"/>
    </linearGradient>
    <linearGradient id="f2" x1="50%" y1="100%" x2="50%" y2="0%">
      <stop offset="0%" stop-color="#ea580c"/>
      <stop offset="100%" stop-color="#fed7aa"/>
    </linearGradient>
  </defs>
  <rect width="512" height="512" rx="112" fill="url(#bg)"/>
  <ellipse cx="256" cy="360" rx="120" ry="28" fill="#f97316" opacity="0.12"/>
  <path fill="url(#f1)" d="M256 72c42 78 54 132 46 196-6 42-26 78-46 98-20-20-40-56-46-98-8-64 4-118 46-196z"/>
  <path fill="url(#f2)" d="M256 128c28 52 36 88 30 132-4 28-18 50-30 64-12-14-26-36-30-64-6-44 2-80 30-132z"/>
  <path fill="#fb923c" d="M176 250c-14 34-18 64-10 92 10-18 16-42 12-66-4-14-1-8-2-26z"/>
  <path fill="#fdba74" d="M336 242c14 32 18 58 10 84-10-16-16-38-12-60 4-12 1-8 2-24z"/>
  <ellipse cx="256" cy="286" rx="38" ry="52" fill="#fff7ed" opacity="0.95"/>
  <ellipse cx="256" cy="298" rx="22" ry="30" fill="#ffedd5"/>
</svg>
