<svg xmlns="http://www.w3.org/2000/svg" viewBox="0 0 512 512" role="img" aria-label="Learning Journey">
  <defs>
    <linearGradient id="bg" x1="0%" y1="0%" x2="100%" y2="100%">
      <stop offset="0%" stop-color="#1a1816"/>
      <stop offset="100%" stop-color="#0a0908"/>
    </linearGradient>
    <linearGradient id="flame" x1="50%" y1="0%" x2="50%" y2="100%">
      <stop offset="0%" stop-color="#ffd08a"/>
      <stop offset="45%" stop-color="#ff9a3c"/>
      <stop offset="100%" stop-color="#d45a12"/>
    </linearGradient>
    <linearGradient id="ring" x1="0%" y1="0%" x2="100%" y2="100%">
      <stop offset="0%" stop-color="#3a3530"/>
      <stop offset="100%" stop-color="#24211e"/>
    </linearGradient>
  </defs>
  <rect width="512" height="512" rx="112" fill="url(#bg)"/>
  <circle cx="256" cy="256" r="168" fill="url(#ring)"/>
  <path fill="url(#flame)" d="M256 118c28 44 38 78 34 118-4 36-18 62-34 78-16-16-30-42-34-78-4-40 6-74 34-118z"/>
  <path fill="#ffe4b0" opacity="0.9" d="M256 150c16 26 22 48 20 74-2 22-10 38-20 48-10-10-18-26-20-48-2-26 4-48 20-74z"/>
</svg>
