<svg xmlns="http://www.w3.org/2000/svg" viewBox="0 0 32 32" role="img" aria-label="Shahad Alqahtani">
  <rect width="32" height="32" rx="8" fill="#f7f3ec"/>
  <circle cx="16" cy="16" r="11" fill="none" stroke="#8f6b3e" stroke-width="1.25" opacity="0.85"/>
  <circle cx="16" cy="16" r="3" fill="#8f6b3e"/>
  <path fill="#141210" d="M19.2 9.8c-1.6 0-2.8.7-3.5 1.8-.5.8-.8 1.8-.8 2.9h2.1c0-.7.1-1.2.4-1.6.4-.6 1-.9 1.8-.9.8 0 1.4.3 1.8.8.4.5.6 1.1.6 1.9 0 .8-.2 1.4-.6 1.9l-2.8 3.1c-.8.9-1.2 1.8-1.2 2.8v.5h2.2v-.4c0-.5.2-1 .6-1.5l2.9-3.2c.9-1 1.3-2.2 1.3-3.6 0-1.3-.4-2.4-1.3-3.2-.9-.9-2.1-1.3-3.6-1.3zm-5.8 12.4h2.2V22h-2.2v.2z"/>
</svg>
