<svg xmlns="http://www.w3.org/2000/svg" viewBox="0 0 390 844" preserveAspectRatio="xMidYMid slice">
  <defs>
    <linearGradient id="sky" x1="0" y1="0" x2="1" y2="1">
      <stop offset="0%" stop-color="#1a2744"/>
      <stop offset="38%" stop-color="#3d5a80"/>
      <stop offset="68%" stop-color="#98c1d9"/>
      <stop offset="100%" stop-color="#e0fbfc"/>
    </linearGradient>
    <radialGradient id="sun" cx="28%" cy="18%" r="34%">
      <stop offset="0%" stop-color="#fff6e8" stop-opacity="0.85"/>
      <stop offset="40%" stop-color="#ffd6a5" stop-opacity="0.4"/>
      <stop offset="100%" stop-color="#ffd6a5" stop-opacity="0"/>
    </radialGradient>
    <radialGradient id="glow1" cx="18%" cy="78%" r="42%">
      <stop offset="0%" stop-color="#ee6c4d" stop-opacity="0.45"/>
      <stop offset="100%" stop-color="#ee6c4d" stop-opacity="0"/>
    </radialGradient>
    <radialGradient id="glow2" cx="88%" cy="68%" r="36%">
      <stop offset="0%" stop-color="#7eb2ff" stop-opacity="0.4"/>
      <stop offset="100%" stop-color="#7eb2ff" stop-opacity="0"/>
    </radialGradient>
    <filter id="soft" x="-20%" y="-20%" width="140%" height="140%">
      <feGaussianBlur stdDeviation="28"/>
    </filter>
  </defs>
  <rect width="390" height="844" fill="url(#sky)"/>
  <circle cx="110" cy="150" r="150" fill="url(#sun)"/>
  <ellipse cx="70" cy="680" rx="180" ry="160" fill="url(#glow1)" filter="url(#soft)"/>
  <ellipse cx="340" cy="560" rx="150" ry="140" fill="url(#glow2)" filter="url(#soft)"/>
  <path d="M-40 520 C60 470 120 560 210 520 C300 480 340 540 430 500 L430 860 L-40 860 Z" fill="#1b263b" opacity="0.35"/>
  <path d="M-40 580 C80 540 140 620 230 575 C320 530 360 600 430 570 L430 860 L-40 860 Z" fill="#0d1b2a" opacity="0.45"/>
  <circle cx="60" cy="120" r="1.2" fill="#fff" opacity="0.7"/>
  <circle cx="120" cy="90" r="0.9" fill="#fff" opacity="0.55"/>
  <circle cx="200" cy="140" r="1.1" fill="#fff" opacity="0.45"/>
  <circle cx="320" cy="70" r="0.8" fill="#fff" opacity="0.5"/>
  <circle cx="350" cy="160" r="1" fill="#fff" opacity="0.4"/>
  <circle cx="40" cy="220" r="0.7" fill="#fff" opacity="0.35"/>
</svg>
